<svg width="23" height="22" viewBox="0 0 23 22" fill="none" xmlns="http://www.w3.org/2000/svg">
<path d="M16.3119 12.1C17.1366 12.1 17.8623 11.649 18.2362 10.967L22.1727 3.828C22.5796 3.102 22.0518 2.2 21.2161 2.2H4.94212L3.9085 0H0.312836V2.2H2.51202L6.47055 10.549L4.9861 13.233C4.1834 14.707 5.23901 16.5 6.91039 16.5H20.1055V14.3H6.91039L8.11994 12.1H16.3119ZM5.98673 4.4H19.3468L16.3119 9.9H8.59276L5.98673 4.4ZM6.91039 17.6C5.70083 17.6 4.7222 18.59 4.7222 19.8C4.7222 21.01 5.70083 22 6.91039 22C8.11994 22 9.10957 21.01 9.10957 19.8C9.10957 18.59 8.11994 17.6 6.91039 17.6ZM17.9063 17.6C16.6968 17.6 15.7181 18.59 15.7181 19.8C15.7181 21.01 16.6968 22 17.9063 22C19.1159 22 20.1055 21.01 20.1055 19.8C20.1055 18.59 19.1159 17.6 17.9063 17.6Z" fill="#9A9BB0"/>
</svg>
